<?xml version="1.0" encoding="utf-8"?>
<svg viewBox="0 0 500 500" xmlns="http://www.w3.org/2000/svg">
  <text style="fill: rgb(53, 53, 53); font-family: Arial, sans-serif; font-size: 28px; white-space: pre;" transform="matrix(0.623289, 0, 0, 0.623295, 112.250488, 63.636448)"> </text>
  <text style="fill: rgb(53, 53, 53); font-family: Arial, sans-serif; font-size: 28px; white-space: pre;" transform="matrix(0.623289, 0, 0, 0.623295, 212.543365, 235.892609)"> </text>
  <text style="fill: rgb(53, 53, 53); font-family: Arial, sans-serif; font-size: 28px; white-space: pre;" transform="matrix(0.623289, 0, 0, 0.623295, 177.979172, 201.894669)"> </text>
  <path d="M 320.77 341.286 C 320.77 357.872 306.944 371.318 289.889 371.318 C 272.834 371.318 259.008 357.872 259.008 341.286 C 259.008 324.7 272.834 311.254 289.889 311.254 C 306.944 311.254 320.77 324.7 320.77 341.286 Z M 351.501 342.703 C 351.501 359.939 344.474 375.351 332.965 386.662 C 321.452 397.972 305.745 404.882 288.188 404.882 C 270.632 404.882 254.922 397.969 243.409 386.659 C 231.9 375.348 224.876 359.939 224.876 342.703 C 224.876 325.467 231.903 310.055 243.412 298.744 C 254.925 287.434 270.632 280.524 288.188 280.524 C 305.745 280.524 321.455 287.437 332.968 298.747 C 344.477 310.058 351.501 325.467 351.501 342.703 Z M 333.318 298.39 C 321.731 287.03 305.846 280.024 288.188 280.024 C 270.531 280.024 254.649 287.027 243.062 298.387 C 231.5 309.773 224.376 325.363 224.376 342.703 C 224.376 360.043 231.497 375.63 243.059 387.016 C 254.646 398.376 270.531 405.382 288.188 405.382 C 305.846 405.382 321.728 398.379 333.315 387.019 C 344.877 375.633 352.001 360.043 352.001 342.703 C 352.001 325.363 344.88 309.776 333.318 298.39 Z M 332.618 299.104 C 321.179 287.844 305.644 281.024 288.188 281.024 C 270.733 281.024 255.201 287.841 243.762 299.101 C 232.306 310.337 225.376 325.571 225.376 342.703 C 225.376 359.835 232.303 375.066 243.759 386.302 C 255.198 397.562 270.733 404.382 288.188 404.382 C 305.644 404.382 321.176 397.565 332.615 386.305 C 344.071 375.069 351.001 359.835 351.001 342.703 C 351.001 325.571 344.074 310.34 332.618 299.104 Z" style="stroke: rgb(0, 0, 0); paint-order: stroke; fill-rule: nonzero; fill: rgb(53, 53, 53);"/>
  <path style="stroke: rgb(0, 0, 0); fill: rgb(53, 53, 53);" d="M 109.984 152.598 L 110.551 400.216 L 181.379 401.916 L 183.079 243.259 L 259.573 244.392 L 259.573 202.461 L 184.779 199.628 L 184.779 159.397 L 324.735 165.63 L 327.569 101.034 L 111.117 96.501 L 109.984 152.598 Z"/>
</svg>